<svg width="15" height="15" viewBox="0 0 47 47" fill="none" xmlns="http://www.w3.org/2000/svg">
<path fill-rule="evenodd" clip-rule="evenodd" d="M23.5002 46.4166C10.8433 46.4166 0.583496 36.1568 0.583496 23.4999C0.583496 10.843 10.8433 0.583252 23.5002 0.583252C36.157 0.583252 46.4168 10.843 46.4168 23.4999C46.4168 36.1568 36.157 46.4166 23.5002 46.4166ZM41.8335 23.4999C41.8335 18.6376 39.902 13.9745 36.4638 10.5363C33.0256 7.09813 28.3625 5.16658 23.5002 5.16658C18.6379 5.16658 13.9747 7.09813 10.5365 10.5363C7.09837 13.9745 5.16683 18.6376 5.16683 23.4999C5.16683 28.3622 7.09837 33.0254 10.5365 36.4635C13.9747 39.9017 18.6379 41.8332 23.5002 41.8332C28.3625 41.8332 33.0256 39.9017 36.4638 36.4635C39.902 33.0254 41.8335 28.3622 41.8335 23.4999ZM32.6668 21.2083C33.2746 21.2083 33.8575 21.4497 34.2873 21.8795C34.7171 22.3092 34.9585 22.8921 34.9585 23.4999C34.9585 24.1077 34.7171 24.6906 34.2873 25.1204C33.8575 25.5501 33.2746 25.7916 32.6668 25.7916H25.7918C23.271 25.7916 21.2085 23.7291 21.2085 21.2083V12.0416C21.2085 11.4338 21.4499 10.8509 21.8797 10.4211C22.3095 9.99136 22.8924 9.74992 23.5002 9.74992C24.1079 9.74992 24.6908 9.99136 25.1206 10.4211C25.5504 10.8509 25.7918 11.4338 25.7918 12.0416V21.2083H32.6668Z" fill="currentColor"/>
</svg>
