<svg width="48" height="48" viewBox="0 0 48 48" fill="none" xmlns="http://www.w3.org/2000/svg">
<circle cx="24.0001" cy="23.9999" r="16.5333" fill="white"/>
<path d="M24 4C12.94 4 4 12.94 4 24C4 35.06 12.94 44 24 44C35.06 44 44 35.06 44 24C44 12.94 35.06 4 24 4ZM30.2 14.14C30.48 14.14 30.76 14.24 31 14.46L33.54 17C34 17.44 34 18.14 33.54 18.56L31.54 20.56L27.44 16.46L29.44 14.46C29.64 14.24 29.92 14.14 30.2 14.14ZM26.26 17.62L30.38 21.74L18.26 33.86H14.14V29.74L26.26 17.62Z" fill="#4C6444"/>
</svg>
