<svg width="20" height="21" viewBox="0 0 20 21" fill="none" xmlns="http://www.w3.org/2000/svg">
<path d="M13.7383 13.052C14.2744 13.1129 14.8059 13.1607 15.2942 13.1757L15.3096 13.1762H15.325C15.3743 13.1762 15.4248 13.1783 15.4971 13.1815L15.5076 13.182C15.5721 13.1849 15.6595 13.1889 15.75 13.1889C17.8041 13.1889 19 11.3213 19 9.35714C19 7.96456 18.52 6.00851 17.1323 4.38385C15.7136 2.72293 13.4239 1.5 10 1.5C6.5761 1.5 4.2867 2.7229 2.86811 4.38184C1.48054 6.00451 1 7.95735 1 9.34445C1 11.3086 2.19589 13.1762 4.25 13.1762L4.26242 13.1762C4.38873 13.1762 4.56622 13.1762 4.75153 13.1616C5.21643 13.1396 5.71707 13.0953 6.22556 13.0394C6.14294 13.4164 6.04111 13.859 5.91619 14.3764C5.57389 15.7559 5.60957 17.1111 6.4004 18.1137C7.18963 19.1273 8.50722 19.5 9.9625 19.5H10C11.457 19.5 12.7761 19.1264 13.565 18.11L13.5665 18.1079C14.3378 17.1089 14.3765 15.7602 14.0477 14.3822L14.0477 14.3822L14.0466 14.3775C13.9224 13.868 13.8209 13.4282 13.7383 13.052Z" stroke="#4C6444" stroke-width="2"/>
</svg>
