<svg width="14" height="12" viewBox="0 0 14 12" fill="none" xmlns="http://www.w3.org/2000/svg">
    <path d="M0.5 11C0.5 11 2.5 8.99998 7 8.99998M7 8.99998C11.5 8.99998 13.5 11 13.5 11M7 8.99998C7.09603 7.66388 7.98576 5.36031 8.98576 4.36031L9.11883 4.23606M7 8.99998C7 7.41702 6.69461 6.71446 5.58013 5.81989L5.53125 5.77342M11.8889 4.39294C11.0452 5.12728 9.71814 5.00215 9.02662 4.12305C8.33511 3.24396 8.52602 1.92475 9.43839 1.27777C10.2916 0.603143 13 0.999983 13 0.999983C13 0.999983 12.752 3.71831 11.8889 4.39294ZM2.97311 6.07299C3.71196 6.71611 4.87417 6.60653 5.47978 5.83664C6.08492 5.06736 5.90912 3.90498 5.11917 3.3448C4.37196 2.75399 2 3.10153 2 3.10153C2 3.10153 2.21721 5.48218 2.97311 6.07299Z" stroke="currentColor" stroke-linecap="round" stroke-linejoin="round"/>
</svg>