<svg width="36" height="36" viewBox="0 0 36 36" fill="none" xmlns="http://www.w3.org/2000/svg">
<path d="M9.72412 30.2069L8.30991 31.6211L9.72412 33.0353L11.1383 31.6211L9.72412 30.2069ZM12.7241 8.20689C13.8287 8.20689 14.7241 7.31146 14.7241 6.20689C14.7241 5.10232 13.8287 4.20689 12.7241 4.20689L12.7241 8.20689ZM2.30991 25.6211L8.30991 31.6211L11.1383 28.7927L5.13833 22.7927L2.30991 25.6211ZM11.1383 31.6211L17.1383 25.6211L14.3099 22.7927L8.30991 28.7927L11.1383 31.6211ZM11.7241 30.2069L11.7241 8.20689L7.72412 8.20689L7.72412 30.2069L11.7241 30.2069ZM11.7241 8.20689L12.7241 8.20689L12.7241 4.20689L11.7241 4.20689L11.7241 8.20689ZM11.7241 8.20689L11.7241 4.20689C9.51498 4.20689 7.72412 5.99775 7.72412 8.20689L11.7241 8.20689Z" fill="#898989"/>
<path d="M26.0691 6.4138L24.6549 4.99959L26.0691 3.58538L27.4833 4.99959L26.0691 6.4138ZM26.0691 29.9138L24.0691 29.9138L24.0691 29.9138L26.0691 29.9138ZM23.0691 33.9138C21.9645 33.9138 21.0691 33.0184 21.0691 31.9138C21.0691 30.8092 21.9645 29.9138 23.0691 29.9138L23.0691 33.9138ZM18.6549 10.9996L24.6549 4.99959L27.4833 7.82802L21.4833 13.828L18.6549 10.9996ZM27.4833 4.99959L33.4833 10.9996L30.6549 13.828L24.6549 7.82802L27.4833 4.99959ZM28.0691 6.4138L28.0691 29.9138L24.0691 29.9138L24.0691 6.4138L28.0691 6.4138ZM24.0691 33.9138L23.0691 33.9138L23.0691 29.9138L24.0691 29.9138L24.0691 33.9138ZM28.0691 29.9138C28.0691 32.1229 26.2782 33.9138 24.0691 33.9138L24.0691 29.9138L28.0691 29.9138Z" fill="#898989"/>
</svg>
